<?xml version="1.0" encoding="utf-8"?>
<!-- Generator: Adobe Illustrator 17.0.0, SVG Export Plug-In . SVG Version: 6.00 Build 0)  -->
<!DOCTYPE svg PUBLIC "-//W3C//DTD SVG 1.1//EN" "http://www.w3.org/Graphics/SVG/1.1/DTD/svg11.dtd">
<svg version="1.1" id="图层_1" xmlns="http://www.w3.org/2000/svg" xmlns:xlink="http://www.w3.org/1999/xlink" x="0px" y="0px"
	 width="132px" height="30px" viewBox="0 0 132 30" enable-background="new 0 0 132 30" xml:space="preserve">
<g>
	<linearGradient id="SVGID_1_" gradientUnits="userSpaceOnUse" x1="14.4343" y1="-7.4563" x2="12.5117" y2="28.6898">
		<stop  offset="0" style="stop-color:#ECAB53"/>
		<stop  offset="0.5816" style="stop-color:#C8612F"/>
		<stop  offset="1" style="stop-color:#661116"/>
	</linearGradient>
	<path fill="url(#SVGID_1_)" d="M4.929,5.203V3.297h3.812v1.906h1.588v3.071H8.742V9.65h1.271v3.283H8.742V24.37
		c0.069,1.976-0.778,2.929-2.542,2.859H2.07v-2.753h2.224c0.564,0.071,0.811-0.176,0.741-0.741V20.24l-0.529,1.165
		c-0.283,0.635-0.884,0.953-1.8,0.953H1.329v-2.965h0.212c0.353,0.071,0.67-0.318,0.953-1.165l2.647-7.413V8.38H1.223V5.203H4.929z
		 M10.648,6.262h0.635c0.353,0.071,0.599-0.106,0.741-0.529l0.741-2.542h3.812l-0.529,2.118h2.753l0.212-2.012h3.495l-0.212,2.012
		h2.859V8.38h-2.859v3.495h2.965v2.965H22.19v3.071h3.071v3.071H22.19v2.965h2.965V26.7h-10.59v0.529h-3.495V9.545h-0.424V6.262z
		 M18.59,20.875h-4.024v3.071h4.024V20.875z M18.696,14.839h-4.024v3.071h4.024V14.839z M14.778,11.874h3.918V8.38h-3.918V11.874z"
		/>
	<linearGradient id="SVGID_2_" gradientUnits="userSpaceOnUse" x1="49.036" y1="-5.6158" x2="47.1133" y2="30.5303">
		<stop  offset="0" style="stop-color:#ECAB53"/>
		<stop  offset="0.5816" style="stop-color:#C8612F"/>
		<stop  offset="1" style="stop-color:#661116"/>
	</linearGradient>
	<path fill="url(#SVGID_2_)" d="M35.936,8.697h3.6L39.96,7.85h4.659l-0.424,0.847H60.08v3.071H43.031l-1.588,4.13v11.013h-4.236
		v-9.425h-1.271V14.31h0.847c0.281,0.071,0.564-0.106,0.847-0.529l0.953-2.012h-2.647V8.697z M36.042,7.109V3.932h1.906
		l-0.212-1.165h4.554l0.424,1.165h11.119l0.212-1.165h4.765l-0.318,1.165h1.694v3.177H36.042z M53.409,18.546l1.906-2.33H43.348
		v-2.965H60.08v2.542l-2.33,2.542v0.212h2.33v2.965h-2.33v3.071c0.07,1.694-0.6,2.505-2.011,2.436h-6.142V24.37h3.495
		c0.353,0.071,0.529-0.106,0.529-0.529v-2.33H43.243v-2.965H53.409z"/>
	<linearGradient id="SVGID_3_" gradientUnits="userSpaceOnUse" x1="84.9312" y1="-3.7065" x2="83.0086" y2="32.4397">
		<stop  offset="0" style="stop-color:#ECAB53"/>
		<stop  offset="0.5816" style="stop-color:#C8612F"/>
		<stop  offset="1" style="stop-color:#661116"/>
	</linearGradient>
	<path fill="url(#SVGID_3_)" d="M72.132,2.873h23.721v3.283H75.626v17.155c0,0.424,0.212,0.6,0.635,0.529h19.485v3.177H74.461
		c-1.625,0-2.401-0.741-2.33-2.224V2.873z M76.897,9.756h1.059c0.424,0.071,0.67-0.141,0.741-0.635l0.529-1.906h3.177l-0.318,1.271
		h13.767v2.965H87.91v2.33h7.942v2.965h-7.095l2.012,2.436c0.282,0.566,0.811,0.812,1.588,0.741h3.495v2.647h-4.977
		c-1.271,0.071-2.154-0.282-2.647-1.059l-2.118-2.647l-2.224,2.647c-0.566,0.706-1.201,1.024-1.906,0.953h-5.189v-2.647h3.495
		c0.424,0.071,0.847-0.176,1.271-0.741l2.012-2.33h-6.777V13.78h7.519v-2.33h-3.071c-0.283,0.635-0.671,0.918-1.165,0.847h-3.177
		V9.756z"/>
	<linearGradient id="SVGID_4_" gradientUnits="userSpaceOnUse" x1="119.6028" y1="-1.8623" x2="117.6801" y2="34.2839">
		<stop  offset="0" style="stop-color:#ECAB53"/>
		<stop  offset="0.5816" style="stop-color:#C8612F"/>
		<stop  offset="1" style="stop-color:#661116"/>
	</linearGradient>
	<path fill="url(#SVGID_4_)" d="M116.481,4.885V2.873h4.13v1.906h10.06v3.389h-10.06v6.036h9.848v3.177h-9.848v6.248h10.166v3.177
		h-24.356v-3.177h10.06v-6.248h-9.743v-3.177h9.743V8.168h-4.236L111.61,9.65c-0.212,0.706-1.024,1.024-2.436,0.953h-2.753V7.215
		h0.953c0.353,0.071,0.635-0.141,0.847-0.635l1.377-3.6h4.554l-0.741,1.906H116.481z"/>
</g>
</svg>
