<?xml version="1.0" encoding="utf-8"?>
<!-- Generator: Adobe Illustrator 17.0.0, SVG Export Plug-In . SVG Version: 6.00 Build 0)  -->
<!DOCTYPE svg PUBLIC "-//W3C//DTD SVG 1.1//EN" "http://www.w3.org/Graphics/SVG/1.1/DTD/svg11.dtd">
<svg version="1.1" id="图层_1" xmlns="http://www.w3.org/2000/svg" xmlns:xlink="http://www.w3.org/1999/xlink" x="0px" y="0px"
	 width="80px" height="80px" viewBox="0 0 80 80" enable-background="new 0 0 80 80" xml:space="preserve">
<circle fill="#02C679" cx="40" cy="40" r="39"/>
<g>
	<path opacity="0.8" fill="#FFFFFF" d="M56.504,32.287c-0.414-0.703-0.934-1.302-1.559-1.792L42.68,22.887
		c-0.76-0.493-1.615-0.738-2.564-0.738c-0.951,0-1.804,0.248-2.564,0.738l-12.265,7.608c-0.738,0.49-1.331,1.088-1.777,1.792
		c-0.446,0.703-0.669,1.493-0.669,2.363v16.922c0.044,1.385,0.525,2.534,1.441,3.451c0.914,0.917,2.066,1.397,3.451,1.441h24.532
		c1.385-0.044,2.534-0.525,3.451-1.441c0.917-0.917,1.397-2.066,1.441-3.451V34.649C57.134,33.777,56.918,32.99,56.504,32.287z"/>
	<path fill="#FFFFFF" d="M46.997,39.492h-4.862v-4.862c0-1.179-0.956-2.135-2.135-2.135c-1.179,0-2.135,0.956-2.135,2.135v4.862
		h-4.862c-1.179,0-2.135,0.956-2.135,2.135c0,1.179,0.956,2.135,2.135,2.135h4.862v4.862c0,1.179,0.956,2.135,2.135,2.135
		c1.179,0,2.135-0.956,2.135-2.135v-4.862h4.862c1.179,0,2.135-0.956,2.135-2.135C49.132,40.447,48.176,39.492,46.997,39.492z"/>
</g>
</svg>
