<?xml version="1.0" encoding="utf-8"?>
<!-- Generator: Adobe Illustrator 17.0.0, SVG Export Plug-In . SVG Version: 6.00 Build 0)  -->
<!DOCTYPE svg PUBLIC "-//W3C//DTD SVG 1.1//EN" "http://www.w3.org/Graphics/SVG/1.1/DTD/svg11.dtd">
<svg version="1.1" id="图层_1" xmlns="http://www.w3.org/2000/svg" xmlns:xlink="http://www.w3.org/1999/xlink" x="0px" y="0px"
	 width="80px" height="80px" viewBox="0 0 80 80" enable-background="new 0 0 80 80" xml:space="preserve">
<circle fill="#07B9B9" cx="40" cy="40" r="39"/>
<g>
	<path fill="#FFFFFF" d="M31.406,22.811H30.33c-4.152,0-7.519,3.366-7.519,7.519v1.076c0,1.994,0.792,3.907,2.203,5.317
		c1.411,1.41,3.324,2.202,5.318,2.201h8.594V30.33c0-1.994-0.792-3.907-2.203-5.318C35.313,23.602,33.4,22.811,31.406,22.811z"/>
	<path fill="#FFFFFF" d="M25.012,43.276c-1.41,1.411-2.202,3.323-2.201,5.318v1.076c0,1.994,0.792,3.906,2.202,5.316
		c1.41,1.41,3.322,2.202,5.317,2.202h1.077c1.994,0,3.907-0.793,5.317-2.204c1.41-1.411,2.202-3.324,2.201-5.318v-8.594H30.33
		C28.336,41.073,26.423,41.866,25.012,43.276z"/>
	<path fill="#FFFFFF" d="M49.667,41.073h-8.594v8.597c0,1.994,0.793,3.907,2.203,5.317c1.411,1.41,3.324,2.202,5.318,2.201h1.076
		c1.994,0,3.906-0.792,5.317-2.202c1.41-1.41,2.202-3.322,2.202-5.316v-1.076c0.001-1.995-0.792-3.908-2.202-5.319
		C53.576,41.864,51.662,41.072,49.667,41.073z"/>
	<path fill="#FFFFFF" d="M49.67,22.811h-1.076h-0.001c-1.994,0-3.907,0.793-5.317,2.203c-1.41,1.411-2.202,3.324-2.201,5.318v8.594
		h8.594c1.994,0,3.907-0.792,5.317-2.203c1.41-1.411,2.202-3.324,2.201-5.318V30.33C57.189,26.178,53.822,22.811,49.67,22.811z"/>
</g>
</svg>
