<?xml version="1.0" encoding="utf-8"?>
<!-- Generator: Adobe Illustrator 17.0.0, SVG Export Plug-In . SVG Version: 6.00 Build 0)  -->
<!DOCTYPE svg PUBLIC "-//W3C//DTD SVG 1.1//EN" "http://www.w3.org/Graphics/SVG/1.1/DTD/svg11.dtd">
<svg version="1.1" id="图层_1" xmlns="http://www.w3.org/2000/svg" xmlns:xlink="http://www.w3.org/1999/xlink" x="0px" y="0px"
	 width="80px" height="80px" viewBox="0 0 80 80" enable-background="new 0 0 80 80" xml:space="preserve">
<circle fill="#FD9643" cx="40" cy="40" r="39"/>
<g>
	<g opacity="0.8">
		<path fill="#FFFFFF" d="M44.803,25.831h-0.239c0-0.66-0.192-1.186-0.578-1.585c-0.386-0.396-0.922-0.596-1.602-0.596h-4.769
			c-0.683,0-1.216,0.199-1.602,0.596c-0.386,0.399-0.578,0.927-0.578,1.585v2.384h9.368V25.831z"/>
		<path fill="#FFFFFF" d="M55.073,27.328c-0.83-0.817-1.856-1.248-3.084-1.293h-5.008v2.419c-0.022,0.66-0.227,1.181-0.613,1.567
			c-0.386,0.386-0.91,0.591-1.567,0.613h-9.605c-0.66-0.022-1.181-0.227-1.567-0.613c-0.386-0.386-0.59-0.909-0.613-1.567v-2.419
			h-5.008c-1.226,0.047-2.252,0.478-3.082,1.295c-0.83,0.817-1.256,1.839-1.278,3.065v21.594c0.022,1.226,0.448,2.252,1.278,3.082
			c0.827,0.83,1.856,1.256,3.082,1.278h23.983c1.226-0.022,2.252-0.448,3.082-1.278c0.83-0.83,1.256-1.856,1.278-3.082V30.393
			C56.329,29.167,55.903,28.146,55.073,27.328z"/>
	</g>
	<g>
		<g opacity="0.8">
			
				<image overflow="visible" opacity="0.75" width="95" height="96" xlink:href="26FEE3D3.png"  transform="matrix(0.24 0 0 0.24 28.6055 28.3302)">
			</image>
			<g>
				<path fill="#FFFFFF" d="M36.192,36.033c0.978-1.033,2.249-1.573,3.807-1.625c1.558,0.055,2.829,0.598,3.807,1.628
					c0.981,1.03,1.483,2.26,1.509,3.688c-0.026,1.561-0.557,2.838-1.587,3.827c-1.03,0.989-2.275,1.5-3.728,1.526
					c-1.454-0.055-2.695-0.598-3.728-1.628c-1.033-1.03-1.561-2.275-1.587-3.729C34.71,38.293,35.215,37.063,36.192,36.033z"/>
			</g>
		</g>
		<g opacity="0.5">
			
				<image overflow="visible" opacity="0.75" width="119" height="74" xlink:href="26FEE3D1.png"  transform="matrix(0.24 0 0 0.24 25.7436 40.5079)">
			</image>
			<g>
				<path fill="#FFFFFF" d="M47.877,51.582c-0.278,0.371-0.615,0.569-1.015,0.595H33.137c-0.398,0-0.734-0.165-1.013-0.496
					c-0.279-0.331-0.366-0.76-0.258-1.288c0.29-1.163,0.868-2.083,1.726-2.756c0.862-0.673,1.808-1.024,2.838-1.05h0.516
					c1.033,0.502,2.051,0.754,3.055,0.754c1.007,0,2.025-0.253,3.055-0.754h0.517c1.03,0.026,1.95,0.377,2.756,1.05
					c0.807,0.673,1.407,1.593,1.805,2.756C48.24,50.816,48.155,51.211,47.877,51.582z"/>
			</g>
		</g>
	</g>
</g>
</svg>
