<?xml version="1.0" encoding="utf-8"?>
<!-- Generator: Adobe Illustrator 17.0.0, SVG Export Plug-In . SVG Version: 6.00 Build 0)  -->
<!DOCTYPE svg PUBLIC "-//W3C//DTD SVG 1.1//EN" "http://www.w3.org/Graphics/SVG/1.1/DTD/svg11.dtd">
<svg version="1.1" id="图层_1" xmlns="http://www.w3.org/2000/svg" xmlns:xlink="http://www.w3.org/1999/xlink" x="0px" y="0px"
	 width="80px" height="80px" viewBox="0 0 80 80" enable-background="new 0 0 80 80" xml:space="preserve">
<circle fill="#F26205" cx="40" cy="40" r="39"/>
<g>
	<path opacity="0.8" fill="#FFFFFF" d="M54.312,25.31c-0.557-0.557-1.169-0.83-1.835-0.818c-0.666,0.012-1.278,0.297-1.835,0.854
		l-4.797,4.797h13.302L54.312,25.31z"/>
	<path opacity="0.9" fill="#FFFFFF" d="M39.074,38.059c-0.241-0.241-0.526-0.43-0.855-0.565c-0.328-0.135-0.676-0.203-1.043-0.203
		c-0.386,0-0.744,0.068-1.072,0.203c-0.328,0.135-0.613,0.323-0.855,0.565c-0.241,0.241-0.435,0.526-0.58,0.855
		c-0.145,0.328-0.217,0.676-0.217,1.043c0,0.367,0.072,0.715,0.217,1.043c0.145,0.328,0.338,0.613,0.58,0.855
		c0.241,0.241,0.526,0.435,0.855,0.579c0.328,0.145,0.686,0.217,1.072,0.217c0.367,0,0.715-0.072,1.043-0.217
		c0.328-0.145,0.613-0.338,0.855-0.579c0.241-0.241,0.435-0.526,0.579-0.855c0.145-0.328,0.217-0.676,0.217-1.043
		c0-0.367-0.072-0.715-0.217-1.043C39.509,38.585,39.316,38.3,39.074,38.059z"/>
	<path opacity="0.9" fill="#FFFFFF" d="M51.155,38.117c-0.241-0.241-0.531-0.43-0.869-0.565c-0.338-0.135-0.69-0.203-1.057-0.203
		c-0.367,0-0.715,0.068-1.043,0.203c-0.328,0.135-0.613,0.324-0.855,0.565c-0.241,0.241-0.435,0.526-0.579,0.855
		c-0.145,0.328-0.217,0.676-0.217,1.043c0,0.367,0.072,0.715,0.217,1.043c0.145,0.328,0.338,0.613,0.579,0.854
		c0.241,0.241,0.526,0.435,0.855,0.58c0.328,0.145,0.676,0.217,1.043,0.217c0.367,0,0.719-0.072,1.057-0.217
		c0.338-0.145,0.628-0.338,0.869-0.58c0.241-0.241,0.435-0.526,0.579-0.854c0.145-0.328,0.217-0.676,0.217-1.043
		c0-0.367-0.072-0.715-0.217-1.043C51.589,38.643,51.396,38.358,51.155,38.117z"/>
	<path opacity="0.8" fill="#FFFFFF" d="M62.029,32.314c-0.196-0.331-0.528-0.61-0.995-0.836c-0.467-0.226-1.123-0.339-1.967-0.339
		H28.142c-0.09-0.603-0.181-1.176-0.271-1.718c-0.06-0.452-0.12-0.897-0.181-1.334c-0.06-0.437-0.121-0.776-0.181-1.017
		c-0.06-0.211-0.136-0.467-0.226-0.769c-0.091-0.301-0.241-0.588-0.452-0.859c-0.211-0.271-0.497-0.497-0.859-0.678
		c-0.362-0.181-0.844-0.271-1.447-0.271h-4.566c-0.693,0-1.243,0.196-1.65,0.588c-0.407,0.392-0.61,0.889-0.61,1.492
		c0,0.301,0.038,0.633,0.113,0.994c0.075,0.362,0.211,0.701,0.407,1.017c0.196,0.316,0.445,0.588,0.746,0.814
		c0.301,0.226,0.678,0.339,1.13,0.339h3.391c0.723,3.737,1.371,7.129,1.944,10.173c0.241,1.296,0.482,2.585,0.724,3.866
		c0.241,1.281,0.46,2.442,0.656,3.481c0.196,1.04,0.362,1.907,0.497,2.6c0.136,0.693,0.219,1.13,0.249,1.311
		c0.09,0.452,0.219,0.934,0.384,1.447c0.166,0.512,0.384,0.987,0.656,1.424c0.271,0.437,0.611,0.791,1.017,1.062
		c0.407,0.271,0.912,0.407,1.515,0.407h23.692c0.844,0,1.409-0.218,1.695-0.656c0.287-0.437,0.43-0.957,0.43-1.56
		c0-1.236-0.724-1.854-2.17-1.854H31.94l-0.633-4.069h23.737c0.874,0,1.605-0.234,2.193-0.701c0.588-0.467,1.077-1.304,1.469-2.509
		c0.211-0.573,0.49-1.356,0.836-2.351c0.347-0.995,0.693-1.997,1.04-3.007c0.347-1.01,0.671-1.937,0.972-2.781
		c0.301-0.844,0.497-1.402,0.588-1.673c0.09-0.271,0.143-0.595,0.158-0.972C62.316,33,62.225,32.645,62.029,32.314z"/>
</g>
</svg>
