<?xml version="1.0" standalone="no"?><!DOCTYPE svg PUBLIC "-//W3C//DTD SVG 1.1//EN" "http://www.w3.org/Graphics/SVG/1.1/DTD/svg11.dtd"><svg t="1598363304438" class="icon" viewBox="0 0 1024 1024" version="1.1" xmlns="http://www.w3.org/2000/svg" p-id="4084" xmlns:xlink="http://www.w3.org/1999/xlink" width="50" height="50"><defs><style type="text/css"></style></defs><path d="M275.4 454.3m-49.9 0a49.9 49.9 0 1 0 99.8 0 49.9 49.9 0 1 0-99.8 0Z" fill="" p-id="4085"></path><path d="M505.6 454.3m-49.9 0a49.9 49.9 0 1 0 99.8 0 49.9 49.9 0 1 0-99.8 0Z" fill="" p-id="4086"></path><path d="M753.7 454.3m-49.9 0a49.9 49.9 0 1 0 99.8 0 49.9 49.9 0 1 0-99.8 0Z" fill="" p-id="4087"></path><path d="M923.1 120H118.5c-25 0-45.3 20.3-45.3 45.3v574.5c0 25 20.3 45.3 45.3 45.3h254.6l106.4 108.2c8.9 9.1 20.6 13.6 32.3 13.6 11 0 22-4 30.8-12.1l118.8-109.7h261.8c25 0 45.3-20.3 45.3-45.3V165.3c0-25-20.4-45.3-45.4-45.3z m-17.7 602.1H645.3v0.2c-6.4 0.7-12.6 3.4-17.7 8.1L512.4 836.9 408.8 731.5c-5.8-5.9-13.3-9-20.9-9.4H136.2V183h769.2v539.1z" fill="" p-id="4088"></path></svg>