<?xml version="1.0" encoding="utf-8"?>
<!-- Generator: Adobe Illustrator 17.0.0, SVG Export Plug-In . SVG Version: 6.00 Build 0)  -->
<!DOCTYPE svg PUBLIC "-//W3C//DTD SVG 1.1//EN" "http://www.w3.org/Graphics/SVG/1.1/DTD/svg11.dtd">
<svg version="1.1" id="图层_1" xmlns="http://www.w3.org/2000/svg" xmlns:xlink="http://www.w3.org/1999/xlink" x="0px" y="0px"
	 width="16px" height="16px" viewBox="0 0 16 16" enable-background="new 0 0 16 16" xml:space="preserve">
<path opacity="0.5" fill="#7F4006" d="M12.017,14.619c-0.07,0-0.14-0.017-0.204-0.05L8,12.564l-3.814,2.005
	c-0.214,0.112-0.478,0.03-0.591-0.184c-0.045-0.085-0.06-0.183-0.044-0.278L4.28,9.861L1.195,6.854
	C1.022,6.685,1.018,6.408,1.187,6.235c0.067-0.069,0.155-0.114,0.25-0.128l4.264-0.62l1.907-3.864
	c0.107-0.217,0.369-0.306,0.586-0.199C8.28,1.468,8.35,1.538,8.392,1.625l1.907,3.864l4.264,0.62
	c0.239,0.035,0.405,0.257,0.37,0.496c-0.014,0.095-0.059,0.183-0.128,0.25L11.72,9.861l0.728,4.247
	c0.041,0.238-0.119,0.464-0.357,0.505C12.067,14.617,12.042,14.619,12.017,14.619z M8,11.632c0.07,0,0.14,0.017,0.204,0.05
	l3.233,1.699l-0.617-3.599c-0.024-0.142,0.023-0.287,0.126-0.387l2.615-2.549L9.946,6.321C9.803,6.3,9.68,6.211,9.616,6.082L8,2.807
	L6.384,6.082C6.32,6.211,6.197,6.3,6.054,6.321L2.44,6.846l2.615,2.549c0.103,0.101,0.15,0.245,0.126,0.387l-0.617,3.599
	l3.233-1.699C7.859,11.65,7.929,11.632,8,11.632z"/>
<linearGradient id="SVGID_1_" gradientUnits="userSpaceOnUse" x1="3.5655" y1="4.2647" x2="14.1776" y2="15.7466">
	<stop  offset="0" style="stop-color:#FFE355"/>
	<stop  offset="1" style="stop-color:#FFA300"/>
</linearGradient>
<path fill="url(#SVGID_1_)" d="M8,1.547l2.097,4.248l4.688,0.681l-3.392,3.307l0.801,4.669L8,12.248l-4.193,2.204l0.801-4.669
	L1.215,6.477l4.688-0.681L8,1.547z"/>
</svg>
