<?xml version="1.0" encoding="utf-8"?>
<!-- Generator: Adobe Illustrator 17.0.0, SVG Export Plug-In . SVG Version: 6.00 Build 0)  -->
<!DOCTYPE svg PUBLIC "-//W3C//DTD SVG 1.1//EN" "http://www.w3.org/Graphics/SVG/1.1/DTD/svg11.dtd">
<svg version="1.1" id="图层_1" xmlns="http://www.w3.org/2000/svg" xmlns:xlink="http://www.w3.org/1999/xlink" x="0px" y="0px"
	 width="26px" height="26px" viewBox="0 0 26 26" enable-background="new 0 0 26 26" xml:space="preserve">
<g>
	<linearGradient id="SVGID_1_" gradientUnits="userSpaceOnUse" x1="4.6004" y1="1.3978" x2="19.8987" y2="31.5008">
		<stop  offset="0" style="stop-color:#FFAC45"/>
		<stop  offset="1" style="stop-color:#BC1822"/>
	</linearGradient>
	<path fill="url(#SVGID_1_)" d="M21.013,19.396c-0.789-0.885-1.884-1.604-3.253-2.13c-0.06-0.023-0.12-0.043-0.18-0.065
		c0.491-0.722,0.821-1.565,0.926-2.486l0.233-2.046h1.04h0.003V8.124c0-1.586-0.622-3.081-1.751-4.21
		c-1.129-1.129-2.624-1.751-4.21-1.751h-1.642c-1.586,0-3.081,0.622-4.21,1.751c-1.129,1.129-1.751,2.624-1.751,4.21v4.545h1.04
		l0.233,2.046c0.108,0.942,0.452,1.803,0.963,2.535c-0.198,0.073-0.405,0.14-0.592,0.221c-1.195,0.522-2.17,1.217-2.898,2.066
		c-1.636,1.907-1.48,3.922-1.473,4.007l0.026,0.293h19v-0.321C22.516,21.902,22.009,20.517,21.013,19.396z M7.602,11.784H7.157
		l-0.058-0.509v-0.522v-2.63c0-1.35,0.531-2.624,1.492-3.585c0.964-0.961,2.235-1.492,3.585-1.492h1.642
		c1.35,0,2.624,0.531,3.585,1.492c0.961,0.964,1.492,2.235,1.492,3.585v2.623v0.555l-0.055,0.483h-0.445H17.95H8.047H7.602z
		 M8.148,12.669h9.702l-0.222,1.946c-0.099,0.869-0.435,1.657-0.936,2.309c-0.188,0.245-0.401,0.469-0.633,0.672
		c-0.822,0.717-1.894,1.15-3.06,1.15c-1.144,0-2.194-0.42-3.011-1.113c-0.236-0.201-0.457-0.419-0.65-0.663
		c-0.52-0.66-0.868-1.465-0.969-2.354L8.148,12.669z M4.579,23.039c0.008-0.191,0.032-0.469,0.106-0.8
		c0.128-0.581,0.434-1.45,1.159-2.29c0.631-0.733,1.484-1.336,2.532-1.793c0.197-0.086,0.415-0.158,0.627-0.233
		c0.003,0.003,0.005,0.006,0.007,0.009c1.013,1.051,2.431,1.698,3.989,1.698c1.579,0,3.015-0.663,4.03-1.736
		c0.003-0.003,0.005-0.006,0.007-0.009c0.088,0.031,0.176,0.057,0.264,0.091c1.208,0.465,2.168,1.09,2.852,1.86
		c0.784,0.879,1.208,1.955,1.267,3.204H4.579z"/>
	<linearGradient id="SVGID_2_" gradientUnits="userSpaceOnUse" x1="8.3787" y1="-1.769" x2="24.5423" y2="30.0369">
		<stop  offset="0" style="stop-color:#FFAC45"/>
		<stop  offset="1" style="stop-color:#BC1822"/>
	</linearGradient>
	<path fill="url(#SVGID_2_)" d="M15.254,6.838h-1.772V5.066c0-0.195-0.159-0.354-0.354-0.354h-0.259
		c-0.195,0-0.354,0.159-0.354,0.354v1.772h-1.772c-0.195,0-0.354,0.159-0.354,0.354v0.259c0,0.195,0.159,0.354,0.354,0.354h1.772
		v1.141v0.439v0.192c0,0.1,0.043,0.189,0.109,0.254c0.064,0.061,0.149,0.1,0.244,0.1h0.259c0.095,0,0.181-0.039,0.244-0.1
		c0.067-0.064,0.109-0.154,0.109-0.254V9.386V8.946V7.805h1.772c0.195,0,0.354-0.159,0.354-0.354V7.192
		C15.608,6.997,15.449,6.838,15.254,6.838z"/>
</g>
</svg>
