<?xml version="1.0" encoding="utf-8"?>
<!-- Generator: Adobe Illustrator 17.0.0, SVG Export Plug-In . SVG Version: 6.00 Build 0)  -->
<!DOCTYPE svg PUBLIC "-//W3C//DTD SVG 1.1//EN" "http://www.w3.org/Graphics/SVG/1.1/DTD/svg11.dtd">
<svg version="1.1" id="图层_1" xmlns="http://www.w3.org/2000/svg" xmlns:xlink="http://www.w3.org/1999/xlink" x="0px" y="0px"
	 width="26px" height="26px" viewBox="0 0 26 26" enable-background="new 0 0 26 26" xml:space="preserve">
<g>
	<linearGradient id="SVGID_1_" gradientUnits="userSpaceOnUse" x1="5.305" y1="3.1889" x2="25.305" y2="28.6889">
		<stop  offset="0" style="stop-color:#FFAC45"/>
		<stop  offset="1" style="stop-color:#BC1822"/>
	</linearGradient>
	<path fill="url(#SVGID_1_)" d="M18.667,22.545H7.333c-1.047,0-1.896-0.943-1.896-2.103V5.558c0-1.16,0.852-2.103,1.896-2.103
		h11.333c1.047,0,1.896,0.943,1.896,2.103v14.884C20.565,21.602,19.714,22.545,18.667,22.545z M18.666,21.545
		c0.261,0,0.45-0.136,0.563-0.249c0.212-0.213,0.334-0.523,0.333-0.854V5.558c0-0.598-0.41-1.103-0.896-1.103H7.333
		c-0.486,0-0.896,0.505-0.896,1.103v14.884c0,0.598,0.41,1.103,0.896,1.103H18.666z"/>
	<linearGradient id="SVGID_2_" gradientUnits="userSpaceOnUse" x1="8.2612" y1="4.3852" x2="22.3211" y2="22.3115">
		<stop  offset="0" style="stop-color:#FFAC45"/>
		<stop  offset="1" style="stop-color:#BC1822"/>
	</linearGradient>
	<path fill="url(#SVGID_2_)" d="M15.311,9.156c0,0.315-0.256,0.571-0.571,0.571H9.266c-0.315,0-0.571-0.256-0.571-0.571l0,0
		c0-0.315,0.256-0.571,0.571-0.571h5.473C15.055,8.585,15.311,8.84,15.311,9.156L15.311,9.156z"/>
	<linearGradient id="SVGID_3_" gradientUnits="userSpaceOnUse" x1="6.8153" y1="5.5192" x2="20.8752" y2="23.4455">
		<stop  offset="0" style="stop-color:#FFAC45"/>
		<stop  offset="1" style="stop-color:#BC1822"/>
	</linearGradient>
	<path fill="url(#SVGID_3_)" d="M15.311,12.133c0,0.315-0.256,0.571-0.571,0.571H9.266c-0.315,0-0.571-0.256-0.571-0.571l0,0
		c0-0.315,0.256-0.571,0.571-0.571h5.473C15.055,11.562,15.311,11.818,15.311,12.133L15.311,12.133z"/>
	<linearGradient id="SVGID_4_" gradientUnits="userSpaceOnUse" x1="4.6383" y1="7.2267" x2="18.6982" y2="25.153">
		<stop  offset="0" style="stop-color:#FFAC45"/>
		<stop  offset="1" style="stop-color:#BC1822"/>
	</linearGradient>
	<path fill="url(#SVGID_4_)" d="M13.202,15.272c0,0.315-0.256,0.571-0.571,0.571H9.266c-0.315,0-0.571-0.256-0.571-0.571l0,0
		c0-0.315,0.256-0.571,0.571-0.571h3.365C12.946,14.701,13.202,14.957,13.202,15.272L13.202,15.272z"/>
</g>
</svg>
