<?xml version="1.0" encoding="utf-8"?>
<!-- Generator: Adobe Illustrator 17.0.0, SVG Export Plug-In . SVG Version: 6.00 Build 0)  -->
<!DOCTYPE svg PUBLIC "-//W3C//DTD SVG 1.1//EN" "http://www.w3.org/Graphics/SVG/1.1/DTD/svg11.dtd">
<svg version="1.1" id="图层_1" xmlns="http://www.w3.org/2000/svg" xmlns:xlink="http://www.w3.org/1999/xlink" x="0px" y="0px"
	 width="26px" height="26px" viewBox="0 0 26 26" enable-background="new 0 0 26 26" xml:space="preserve">
<g>
	<linearGradient id="SVGID_1_" gradientUnits="userSpaceOnUse" x1="7.2905" y1="3.6391" x2="23.8354" y2="23.9698">
		<stop  offset="0" style="stop-color:#FFAC45"/>
		<stop  offset="1" style="stop-color:#BC1822"/>
	</linearGradient>
	<path fill="url(#SVGID_1_)" d="M18.922,19.085h1.292c0.102,0,0.17-0.068,0.17-0.17c0-0.102-0.068-0.17-0.17-0.17h-1.156v-1.836
		c0-0.102-0.068-0.17-0.17-0.17c-0.102,0-0.17,0.068-0.17,0.17v1.972c0,0.068,0.034,0.102,0.068,0.136
		C18.82,19.051,18.854,19.085,18.922,19.085z"/>
	<linearGradient id="SVGID_2_" gradientUnits="userSpaceOnUse" x1="7.0795" y1="3.8109" x2="23.6244" y2="24.1415">
		<stop  offset="0" style="stop-color:#FFAC45"/>
		<stop  offset="1" style="stop-color:#BC1822"/>
	</linearGradient>
	<path fill="url(#SVGID_2_)" d="M21.557,16.337c-0.98-0.98-2.436-1.215-3.649-0.713c0.203,0.202,0.392,0.417,0.574,0.639
		c0.855-0.23,1.812-0.026,2.473,0.636c1.018,1.018,1.018,2.617,0,3.598c-0.173,0.173-0.371,0.305-0.578,0.417
		c0.001,0.013,0.005,0.025,0.006,0.039h-0.08c-0.954,0.476-2.158,0.332-2.946-0.455c-0.981-0.981-0.981-2.617,0-3.598
		c0.001-0.001,0.002-0.002,0.004-0.003c-0.167-0.193-0.344-0.378-0.532-0.551c-1.288,1.296-1.287,3.421,0.006,4.714
		c1.295,1.295,3.426,1.295,4.722,0C22.853,19.763,22.853,17.674,21.557,16.337z"/>
	<linearGradient id="SVGID_3_" gradientUnits="userSpaceOnUse" x1="-3.088" y1="12.0851" x2="13.4569" y2="32.4157">
		<stop  offset="0" style="stop-color:#FFAC45"/>
		<stop  offset="1" style="stop-color:#BC1822"/>
	</linearGradient>
	<path fill="url(#SVGID_3_)" d="M4.145,21.182c0.17-0.001,0.64-0.23,0.64-0.23H3.471C3.471,20.952,3.967,21.183,4.145,21.182z"/>
	<linearGradient id="SVGID_4_" gradientUnits="userSpaceOnUse" x1="-3.1109" y1="12.1038" x2="13.434" y2="32.4344">
		<stop  offset="0" style="stop-color:#FFAC45"/>
		<stop  offset="1" style="stop-color:#BC1822"/>
	</linearGradient>
	<path fill="url(#SVGID_4_)" d="M3.471,20.952c0,0,0.082,0.441,0.581,0.441c0.592,0,0.732-0.441,0.732-0.441s-0.47,0.229-0.64,0.23
		C3.967,21.183,3.471,20.952,3.471,20.952z"/>
	<linearGradient id="SVGID_5_" gradientUnits="userSpaceOnUse" x1="3.9626" y1="6.3474" x2="20.5075" y2="26.678">
		<stop  offset="0" style="stop-color:#FFAC45"/>
		<stop  offset="1" style="stop-color:#BC1822"/>
	</linearGradient>
	<path fill="url(#SVGID_5_)" d="M17.908,15.623c-0.884-0.881-1.956-1.573-3.157-1.998c1.447-0.934,2.405-2.56,2.405-4.41
		c0-2.897-2.348-5.245-5.245-5.245c-2.897,0-5.245,2.348-5.245,5.245c0,1.855,0.963,3.485,2.416,4.418
		c-3.083,1.098-5.343,3.927-5.61,7.318h1.313c0.323-3.629,3.227-6.39,6.925-6.495c0.067,0.003,0.134,0.004,0.201,0.004
		c0.073,0,0.145-0.002,0.218-0.005c1.835,0.048,3.474,0.751,4.702,1.888c0.002-0.002,0.004-0.005,0.006-0.008
		C17.151,16.021,17.518,15.785,17.908,15.623z M12.128,13.392c-0.067-0.001-0.133-0.002-0.2-0.002c-0.075,0-0.15,0.001-0.225,0.003
		c-2.213-0.108-3.975-1.936-3.975-4.176c0-2.309,1.872-4.181,4.181-4.181c2.309,0,4.182,1.872,4.182,4.181
		C16.092,11.452,14.336,13.279,12.128,13.392z"/>
	<linearGradient id="SVGID_6_" gradientUnits="userSpaceOnUse" x1="6.6751" y1="4.14" x2="23.22" y2="24.4706">
		<stop  offset="0" style="stop-color:#FFAC45"/>
		<stop  offset="1" style="stop-color:#BC1822"/>
	</linearGradient>
	<path fill="url(#SVGID_6_)" d="M20.384,20.952c-0.001-0.013-0.005-0.025-0.006-0.039c-0.025,0.013-0.049,0.026-0.074,0.039H20.384z
		"/>
	<linearGradient id="SVGID_7_" gradientUnits="userSpaceOnUse" x1="7.3263" y1="3.6101" x2="23.8712" y2="23.9407">
		<stop  offset="0" style="stop-color:#FFAC45"/>
		<stop  offset="1" style="stop-color:#BC1822"/>
	</linearGradient>
	<path fill="url(#SVGID_7_)" d="M18.483,16.263c-0.182-0.222-0.371-0.437-0.574-0.639c-0.391,0.162-0.757,0.398-1.073,0.713
		c-0.002,0.002-0.004,0.005-0.006,0.008c0.188,0.174,0.364,0.358,0.532,0.551C17.68,16.578,18.071,16.374,18.483,16.263z"/>
</g>
</svg>
