<?xml version="1.0" encoding="utf-8"?>
<!-- Generator: Adobe Illustrator 17.0.0, SVG Export Plug-In . SVG Version: 6.00 Build 0)  -->
<!DOCTYPE svg PUBLIC "-//W3C//DTD SVG 1.1//EN" "http://www.w3.org/Graphics/SVG/1.1/DTD/svg11.dtd">
<svg version="1.1" id="图层_1" xmlns="http://www.w3.org/2000/svg" xmlns:xlink="http://www.w3.org/1999/xlink" x="0px" y="0px"
	 width="28px" height="28px" viewBox="109.333 16 28 28" enable-background="new 109.333 16 28 28" xml:space="preserve">
<path opacity="0.3" fill="#4651CD" d="M123.334,22.546c-2.257,0-4.094,1.841-4.094,4.103c0,2.25,2.036,4.839,3.536,6.375
	c0.326,0.336,0.862,0.348,1.203,0.027h0.001c1.349-1.267,3.448-3.676,3.448-6.402C127.427,24.387,125.59,22.546,123.334,22.546z"/>
<linearGradient id="SVGID_1_" gradientUnits="userSpaceOnUse" x1="121.5663" y1="24.4174" x2="125.8996" y2="30.5841">
	<stop  offset="0" style="stop-color:#F5B052"/>
	<stop  offset="1" style="stop-color:#D1632D"/>
</linearGradient>
<path fill="url(#SVGID_1_)" d="M126.304,26.19h-2.228v-2.228h-1.485v2.228h-2.228v1.485h2.228v2.228h1.485v-2.228h2.228V26.19z"/>
<path fill="#3A3A3A" d="M123.334,18.433l-0.001-0.002c-4.369,0.001-7.926,3.566-7.926,7.946c0,5.858,6.918,11.745,7.212,11.992
	c0.389,0.328,0.951,0.349,1.364,0.052c0.297-0.215,7.277-5.326,7.277-12.044C131.26,21.997,127.703,18.433,123.334,18.433z
	 M124.339,36.537L124.339,36.537c-0.533,0.5-1.367,0.481-1.876-0.042c-2.338-2.394-5.511-6.429-5.511-9.937
	c0-3.526,2.864-6.396,6.382-6.396c3.517,0,6.38,2.87,6.38,6.396C129.714,30.807,126.443,34.561,124.339,36.537z"/>
<path fill="#3A3A3A" d="M130,41.306c0,0.48-0.333,0.868-0.744,0.868H117.41c-0.411,0-0.744-0.389-0.744-0.868l0,0
	c0-0.48,0.333-0.868,0.744-0.868h11.846C129.667,40.438,130,40.826,130,41.306L130,41.306z"/>
</svg>
