<?xml version="1.0" encoding="utf-8"?>
<!-- Generator: Adobe Illustrator 17.0.0, SVG Export Plug-In . SVG Version: 6.00 Build 0)  -->
<!DOCTYPE svg PUBLIC "-//W3C//DTD SVG 1.1//EN" "http://www.w3.org/Graphics/SVG/1.1/DTD/svg11.dtd">
<svg version="1.1" id="图层_1" xmlns="http://www.w3.org/2000/svg" xmlns:xlink="http://www.w3.org/1999/xlink" x="0px" y="0px"
	 width="28px" height="28px" viewBox="62.167 16 28 28" enable-background="new 62.167 16 28 28" xml:space="preserve">
<path fill="#3A3A3A" d="M72.528,19.402h-4.639c-1.279,0-2.32,1.041-2.32,2.32v4.639c0,1.279,1.041,2.32,2.32,2.32h4.639
	c1.279,0,2.32-1.041,2.32-2.32v-4.639C74.847,20.443,73.807,19.402,72.528,19.402z M73.301,26.361c0,0.426-0.347,0.773-0.773,0.773
	h-4.639c-0.426,0-0.773-0.347-0.773-0.773v-4.639c0-0.426,0.347-0.773,0.773-0.773h4.639c0.426,0,0.773,0.347,0.773,0.773V26.361z"
	/>
<path fill="#3A3A3A" d="M72.528,30.227h-4.639c-1.279,0-2.32,1.041-2.32,2.32v4.639c0,1.279,1.041,2.32,2.32,2.32h4.639
	c1.279,0,2.32-1.041,2.32-2.32v-4.639C74.847,31.267,73.807,30.227,72.528,30.227z M73.301,37.186c0,0.426-0.347,0.773-0.773,0.773
	h-4.639c-0.426,0-0.773-0.347-0.773-0.773v-4.639c0-0.426,0.347-0.773,0.773-0.773h4.639c0.426,0,0.773,0.347,0.773,0.773V37.186z"
	/>
<path fill="#3A3A3A" d="M78.713,28.701h4.639c1.279,0,2.32-1.041,2.32-2.32v-4.639c0-1.279-1.041-2.32-2.32-2.32h-4.639
	c-1.279,0-2.32,1.041-2.32,2.32v4.639C76.394,27.66,77.434,28.701,78.713,28.701z M77.94,21.742c0-0.426,0.347-0.773,0.773-0.773
	h4.639c0.426,0,0.773,0.347,0.773,0.773v4.639c0,0.426-0.347,0.773-0.773,0.773h-4.639c-0.426,0-0.773-0.347-0.773-0.773
	L77.94,21.742L77.94,21.742z"/>
<path fill="#3A3A3A" d="M86.539,39.279l-1.726-1.726c0.541-0.759,0.859-1.686,0.859-2.687c0-2.558-2.081-4.639-4.639-4.639
	c-2.558,0-4.639,2.081-4.639,4.639s2.081,4.639,4.639,4.639c1.001,0,1.928-0.318,2.687-0.859l1.726,1.726
	c0.301,0.301,0.793,0.301,1.093,0C86.84,40.071,86.84,39.579,86.539,39.279z M81.033,37.959c-1.705,0-3.093-1.387-3.093-3.093
	c0-1.705,1.387-3.093,3.093-3.093c1.705,0,3.093,1.387,3.093,3.093C84.125,36.571,82.738,37.959,81.033,37.959z"/>
<circle opacity="0.3" fill="#4651CD" cx="81.033" cy="34.866" r="3.093"/>
<linearGradient id="SVGID_1_" gradientUnits="userSpaceOnUse" x1="80.2595" y1="32.3608" x2="80.2595" y2="36.3949">
	<stop  offset="0" style="stop-color:#F5B052"/>
	<stop  offset="1" style="stop-color:#D1632D"/>
</linearGradient>
<path fill="url(#SVGID_1_)" d="M81.033,32.546c-1.279,0-2.32,1.041-2.32,2.32c0,0.427,0.346,0.773,0.773,0.773
	s0.773-0.346,0.773-0.773c0-0.426,0.347-0.773,0.773-0.773c0.427,0,0.773-0.346,0.773-0.773
	C81.806,32.893,81.46,32.546,81.033,32.546z"/>
</svg>
