<?xml version="1.0" encoding="utf-8"?>
<!-- Generator: Adobe Illustrator 17.0.0, SVG Export Plug-In . SVG Version: 6.00 Build 0)  -->
<!DOCTYPE svg PUBLIC "-//W3C//DTD SVG 1.1//EN" "http://www.w3.org/Graphics/SVG/1.1/DTD/svg11.dtd">
<svg version="1.1" id="图层_1" xmlns="http://www.w3.org/2000/svg" xmlns:xlink="http://www.w3.org/1999/xlink" x="0px" y="0px"
	 width="28px" height="28px" viewBox="16 16 28 28" enable-background="new 16 16 28 28" xml:space="preserve">
<path fill="#3A3A3A" d="M37.887,41.34H22.113c-0.899,0-1.629-0.731-1.629-1.629V22.604c0-1.348,1.096-2.444,2.444-2.444H33.11
	c1.348,0,2.444,1.096,2.444,2.444v5.702h2.333c0.899,0,1.629,0.731,1.629,1.629v9.775C39.516,40.609,38.786,41.34,37.887,41.34z
	 M35.554,39.711h2.333v-9.775h-2.333V39.711z M22.928,21.789c-0.449,0-0.815,0.365-0.815,0.815v17.107h11.812V22.604
	c0-0.449-0.366-0.815-0.815-0.815H22.928z"/>
<path opacity="0.3" fill="#4651CD" d="M32.37,28.787c0.294,0.294,0.294,0.772,0,1.066l-3.999,3.999
	c-0.294,0.294-0.772,0.294-1.066,0l-3.999-3.999c-0.294-0.294-0.294-0.772,0-1.066l3.999-3.999c0.294-0.294,0.772-0.294,1.066,0
	L32.37,28.787z"/>
<linearGradient id="SVGID_1_" gradientUnits="userSpaceOnUse" x1="25.2363" y1="29.3199" x2="30.4409" y2="29.3199">
	<stop  offset="0" style="stop-color:#F5B052"/>
	<stop  offset="1" style="stop-color:#D1632D"/>
</linearGradient>
<path fill="url(#SVGID_1_)" d="M30.441,28.669h-1.952v-1.952h-1.301v1.952h-1.952v1.301h1.952v1.952h1.301V29.97h1.952
	L30.441,28.669z"/>
</svg>
